solid OpenSCAD_Model
  facet normal 1 -0 0
    outer loop
      vertex 47.5 -3 36.5
      vertex 47.5 7 -36.5
      vertex 47.5 7 36.5
    endloop
  endfacet
  facet normal 1 0 0
    outer loop
      vertex 47.5 7 -36.5
      vertex 47.5 -3 36.5
      vertex 47.5 -3 -36.5
    endloop
  endfacet
  facet normal -0 0 1
    outer loop
      vertex 43.5 3 36.5
      vertex 45.5 1 36.5
      vertex 45.5 3 36.5
    endloop
  endfacet
  facet normal 0 0 1
    outer loop
      vertex 45.5 1 36.5
      vertex 43.5 3 36.5
      vertex 43.5 1 36.5
    endloop
  endfacet
  facet normal 0 0 1
    outer loop
      vertex 45.5 3 36.5
      vertex 47.5 7 36.5
      vertex 45.5 5 36.5
    endloop
  endfacet
  facet normal 0 0 1
    outer loop
      vertex 47.5 7 36.5
      vertex -45.5 5 36.5
      vertex 45.5 5 36.5
    endloop
  endfacet
  facet normal 0 0 1
    outer loop
      vertex -47.5 7 36.5
      vertex -45.5 3 36.5
      vertex -45.5 5 36.5
    endloop
  endfacet
  facet normal 0 0 1
    outer loop
      vertex -45.5 3 36.5
      vertex -47.5 7 36.5
      vertex -45.5 1 36.5
    endloop
  endfacet
  facet normal 0 0 1
    outer loop
      vertex -47.5 -3 36.5
      vertex -45.5 1 36.5
      vertex -47.5 7 36.5
    endloop
  endfacet
  facet normal -0 0 1
    outer loop
      vertex -47.5 7 36.5
      vertex -45.5 5 36.5
      vertex 47.5 7 36.5
    endloop
  endfacet
  facet normal 0 0 1
    outer loop
      vertex 47.5 7 36.5
      vertex 45.5 3 36.5
      vertex 47.5 -3 36.5
    endloop
  endfacet
  facet normal -0 0 1
    outer loop
      vertex 45.5 1 36.5
      vertex 47.5 -3 36.5
      vertex 45.5 3 36.5
    endloop
  endfacet
  facet normal -0 0 1
    outer loop
      vertex 45.5 -1 36.5
      vertex 47.5 -3 36.5
      vertex 45.5 1 36.5
    endloop
  endfacet
  facet normal 0 0 1
    outer loop
      vertex 43.5 -3 36.5
      vertex 45.5 -1 36.5
      vertex 43.5 -1 36.5
    endloop
  endfacet
  facet normal 0 0 1
    outer loop
      vertex 45.5 -1 36.5
      vertex 43.5 -3 36.5
      vertex 47.5 -3 36.5
    endloop
  endfacet
  facet normal -0 0 1
    outer loop
      vertex -45.5 3 36.5
      vertex -43.5 1 36.5
      vertex -43.5 3 36.5
    endloop
  endfacet
  facet normal 0 0 1
    outer loop
      vertex -43.5 1 36.5
      vertex -45.5 3 36.5
      vertex -45.5 1 36.5
    endloop
  endfacet
  facet normal -0 0 1
    outer loop
      vertex -45.5 -1 36.5
      vertex -43.5 -3 36.5
      vertex -43.5 -1 36.5
    endloop
  endfacet
  facet normal 0 0 1
    outer loop
      vertex -45.5 -1 36.5
      vertex -47.5 -3 36.5
      vertex -43.5 -3 36.5
    endloop
  endfacet
  facet normal 0 0 1
    outer loop
      vertex -45.5 1 36.5
      vertex -47.5 -3 36.5
      vertex -45.5 -1 36.5
    endloop
  endfacet
  facet normal 0 0 -1
    outer loop
      vertex -47.5 -3 -36.5
      vertex 47.5 7 -36.5
      vertex 47.5 -3 -36.5
    endloop
  endfacet
  facet normal -0 0 -1
    outer loop
      vertex 47.5 7 -36.5
      vertex -47.5 -3 -36.5
      vertex -47.5 7 -36.5
    endloop
  endfacet
  facet normal -1 0 0
    outer loop
      vertex -47.5 -3 -36.5
      vertex -47.5 7 36.5
      vertex -47.5 7 -36.5
    endloop
  endfacet
  facet normal -1 -0 0
    outer loop
      vertex -47.5 7 36.5
      vertex -47.5 -3 -36.5
      vertex -47.5 -3 36.5
    endloop
  endfacet
  facet normal 0 1 -0
    outer loop
      vertex 47.5 7 -36.5
      vertex -47.5 7 36.5
      vertex 47.5 7 36.5
    endloop
  endfacet
  facet normal 0 1 0
    outer loop
      vertex -47.5 7 36.5
      vertex 47.5 7 -36.5
      vertex -47.5 7 -36.5
    endloop
  endfacet
  facet normal 0 -1 0
    outer loop
      vertex -47.5 -3 36.5
      vertex -43.5 -3 -32.5
      vertex -43.5 -3 36.5
    endloop
  endfacet
  facet normal 0 -1 -0
    outer loop
      vertex -43.5 -3 -32.5
      vertex -47.5 -3 -36.5
      vertex 43.5 -3 -32.5
    endloop
  endfacet
  facet normal 0 -1 0
    outer loop
      vertex -47.5 -3 -36.5
      vertex -43.5 -3 -32.5
      vertex -47.5 -3 36.5
    endloop
  endfacet
  facet normal 0 -1 0
    outer loop
      vertex 43.5 -3 -32.5
      vertex 47.5 -3 36.5
      vertex 43.5 -3 36.5
    endloop
  endfacet
  facet normal 0 -1 0
    outer loop
      vertex 43.5 -3 -32.5
      vertex 47.5 -3 -36.5
      vertex 47.5 -3 36.5
    endloop
  endfacet
  facet normal 0 -1 0
    outer loop
      vertex 47.5 -3 -36.5
      vertex 43.5 -3 -32.5
      vertex -47.5 -3 -36.5
    endloop
  endfacet
  facet normal -1 0 0
    outer loop
      vertex 45.5 -1 -34.5
      vertex 45.5 1 36.5
      vertex 45.5 1 -34.5
    endloop
  endfacet
  facet normal -1 -0 0
    outer loop
      vertex 45.5 1 36.5
      vertex 45.5 -1 -34.5
      vertex 45.5 -1 36.5
    endloop
  endfacet
  facet normal -0 0 1
    outer loop
      vertex -45.5 1 -34.5
      vertex 45.5 -1 -34.5
      vertex 45.5 1 -34.5
    endloop
  endfacet
  facet normal 0 0 1
    outer loop
      vertex 45.5 -1 -34.5
      vertex -45.5 1 -34.5
      vertex -45.5 -1 -34.5
    endloop
  endfacet
  facet normal 1 -0 0
    outer loop
      vertex -45.5 -1 36.5
      vertex -45.5 1 -34.5
      vertex -45.5 1 36.5
    endloop
  endfacet
  facet normal 1 0 0
    outer loop
      vertex -45.5 1 -34.5
      vertex -45.5 -1 36.5
      vertex -45.5 -1 -34.5
    endloop
  endfacet
  facet normal 0 -1 0
    outer loop
      vertex -45.5 1 36.5
      vertex -43.5 1 -32.5
      vertex -43.5 1 36.5
    endloop
  endfacet
  facet normal 0 -1 -0
    outer loop
      vertex -43.5 1 -32.5
      vertex -45.5 1 -34.5
      vertex 43.5 1 -32.5
    endloop
  endfacet
  facet normal 0 -1 0
    outer loop
      vertex -45.5 1 -34.5
      vertex -43.5 1 -32.5
      vertex -45.5 1 36.5
    endloop
  endfacet
  facet normal 0 -1 0
    outer loop
      vertex 43.5 1 -32.5
      vertex 45.5 1 36.5
      vertex 43.5 1 36.5
    endloop
  endfacet
  facet normal 0 -1 0
    outer loop
      vertex 43.5 1 -32.5
      vertex 45.5 1 -34.5
      vertex 45.5 1 36.5
    endloop
  endfacet
  facet normal 0 -1 0
    outer loop
      vertex 45.5 1 -34.5
      vertex 43.5 1 -32.5
      vertex -45.5 1 -34.5
    endloop
  endfacet
  facet normal 0 1 0
    outer loop
      vertex 45.5 -1 36.5
      vertex 43.5 -1 -32.5
      vertex 43.5 -1 36.5
    endloop
  endfacet
  facet normal 0 1 0
    outer loop
      vertex 43.5 -1 -32.5
      vertex 45.5 -1 -34.5
      vertex -43.5 -1 -32.5
    endloop
  endfacet
  facet normal 0 1 -0
    outer loop
      vertex 45.5 -1 -34.5
      vertex 43.5 -1 -32.5
      vertex 45.5 -1 36.5
    endloop
  endfacet
  facet normal 0 1 -0
    outer loop
      vertex -43.5 -1 -32.5
      vertex -45.5 -1 36.5
      vertex -43.5 -1 36.5
    endloop
  endfacet
  facet normal 0 1 0
    outer loop
      vertex -43.5 -1 -32.5
      vertex -45.5 -1 -34.5
      vertex -45.5 -1 36.5
    endloop
  endfacet
  facet normal 0 1 0
    outer loop
      vertex -45.5 -1 -34.5
      vertex -43.5 -1 -32.5
      vertex 45.5 -1 -34.5
    endloop
  endfacet
  facet normal -1 0 0
    outer loop
      vertex 45.5 3 -34.5
      vertex 45.5 5 36.5
      vertex 45.5 5 -34.5
    endloop
  endfacet
  facet normal -1 -0 0
    outer loop
      vertex 45.5 5 36.5
      vertex 45.5 3 -34.5
      vertex 45.5 3 36.5
    endloop
  endfacet
  facet normal -0 0 1
    outer loop
      vertex -45.5 5 -34.5
      vertex 45.5 3 -34.5
      vertex 45.5 5 -34.5
    endloop
  endfacet
  facet normal 0 0 1
    outer loop
      vertex 45.5 3 -34.5
      vertex -45.5 5 -34.5
      vertex -45.5 3 -34.5
    endloop
  endfacet
  facet normal 1 -0 0
    outer loop
      vertex -45.5 3 36.5
      vertex -45.5 5 -34.5
      vertex -45.5 5 36.5
    endloop
  endfacet
  facet normal 1 0 0
    outer loop
      vertex -45.5 5 -34.5
      vertex -45.5 3 36.5
      vertex -45.5 3 -34.5
    endloop
  endfacet
  facet normal 0 -1 0
    outer loop
      vertex -45.5 5 -34.5
      vertex 45.5 5 36.5
      vertex -45.5 5 36.5
    endloop
  endfacet
  facet normal 0 -1 -0
    outer loop
      vertex 45.5 5 36.5
      vertex -45.5 5 -34.5
      vertex 45.5 5 -34.5
    endloop
  endfacet
  facet normal 0 1 0
    outer loop
      vertex 45.5 3 36.5
      vertex 43.5 3 -32.5
      vertex 43.5 3 36.5
    endloop
  endfacet
  facet normal 0 1 0
    outer loop
      vertex 43.5 3 -32.5
      vertex 45.5 3 -34.5
      vertex -43.5 3 -32.5
    endloop
  endfacet
  facet normal 0 1 -0
    outer loop
      vertex 45.5 3 -34.5
      vertex 43.5 3 -32.5
      vertex 45.5 3 36.5
    endloop
  endfacet
  facet normal 0 1 -0
    outer loop
      vertex -43.5 3 -32.5
      vertex -45.5 3 36.5
      vertex -43.5 3 36.5
    endloop
  endfacet
  facet normal 0 1 0
    outer loop
      vertex -43.5 3 -32.5
      vertex -45.5 3 -34.5
      vertex -45.5 3 36.5
    endloop
  endfacet
  facet normal 0 1 0
    outer loop
      vertex -45.5 3 -34.5
      vertex -43.5 3 -32.5
      vertex 45.5 3 -34.5
    endloop
  endfacet
  facet normal -1 0 0
    outer loop
      vertex 43.5 -3 -32.5
      vertex 43.5 -1 36.5
      vertex 43.5 -1 -32.5
    endloop
  endfacet
  facet normal -1 -0 0
    outer loop
      vertex 43.5 -1 36.5
      vertex 43.5 -3 -32.5
      vertex 43.5 -3 36.5
    endloop
  endfacet
  facet normal -1 0 0
    outer loop
      vertex 43.5 1 -32.5
      vertex 43.5 3 36.5
      vertex 43.5 3 -32.5
    endloop
  endfacet
  facet normal -1 -0 0
    outer loop
      vertex 43.5 3 36.5
      vertex 43.5 1 -32.5
      vertex 43.5 1 36.5
    endloop
  endfacet
  facet normal -0 0 1
    outer loop
      vertex -43.5 -1 -32.5
      vertex 43.5 -3 -32.5
      vertex 43.5 -1 -32.5
    endloop
  endfacet
  facet normal 0 0 1
    outer loop
      vertex 43.5 -3 -32.5
      vertex -43.5 -1 -32.5
      vertex -43.5 -3 -32.5
    endloop
  endfacet
  facet normal -0 0 1
    outer loop
      vertex -43.5 3 -32.5
      vertex 43.5 1 -32.5
      vertex 43.5 3 -32.5
    endloop
  endfacet
  facet normal 0 0 1
    outer loop
      vertex 43.5 1 -32.5
      vertex -43.5 3 -32.5
      vertex -43.5 1 -32.5
    endloop
  endfacet
  facet normal 1 -0 0
    outer loop
      vertex -43.5 -3 36.5
      vertex -43.5 -1 -32.5
      vertex -43.5 -1 36.5
    endloop
  endfacet
  facet normal 1 0 0
    outer loop
      vertex -43.5 -1 -32.5
      vertex -43.5 -3 36.5
      vertex -43.5 -3 -32.5
    endloop
  endfacet
  facet normal 1 -0 0
    outer loop
      vertex -43.5 1 36.5
      vertex -43.5 3 -32.5
      vertex -43.5 3 36.5
    endloop
  endfacet
  facet normal 1 0 0
    outer loop
      vertex -43.5 3 -32.5
      vertex -43.5 1 36.5
      vertex -43.5 1 -32.5
    endloop
  endfacet
endsolid OpenSCAD_Model
